PathFileType	4	(X/Y/Z)	E:\3-PhD\Data\MocapData\ElaboratedData\015\pre\dynamicElaborations\Run_baselineA1\Run_baselineA1.trc
DataRate	CameraRate	NumFrames	NumMarkers	Units	OrigDataRate	OrigDataStartFrame	OrigNumFrames
200	200	4	61	mm	200	8.550000e+02	99
Frame#	Time	FHD			LBHD			RBHD			C7			T10			CLAV			LSHO			LUUPA			LMUPA			LDUPA			LLEP			LMEP			LRAD			LUL			LRFIN			RSHO			RUPA1			RMUPA			RDUPA			RLEP			RMEP			RRAD			RUL			RUFIN			LASI			RASI			USACR			LSACR			RSACR			LTHI1			LTHI2			LTHI3			LTHI4			LLFC			LMFC			LTIB1			LTIB2			LTIB3			LTIB4			LLMAL			LMMAL			LHEE			LMT1			LMT5			LMT2			RTHI			RTHI2			RTHI3			RTHI4			RLFC			RMFC			RTIB1			RTIB2			RTIB3			RTIB4			RLMAL			RMMAL			RHEE			RMT1			RMT2			RMT5		
		X1	Y1	Z1	X2	Y2	Z2	X3	Y3	Z3	X4	Y4	Z4	X5	Y5	Z5	X6	Y6	Z6	X7	Y7	Z7	X8	Y8	Z8	X9	Y9	Z9	X10	Y10	Z10	X11	Y11	Z11	X12	Y12	Z12	X13	Y13	Z13	X14	Y14	Z14	X15	Y15	Z15	X16	Y16	Z16	X17	Y17	Z17	X18	Y18	Z18	X19	Y19	Z19	X20	Y20	Z20	X21	Y21	Z21	X22	Y22	Z22	X23	Y23	Z23	X24	Y24	Z24	X25	Y25	Z25	X26	Y26	Z26	X27	Y27	Z27	X28	Y28	Z28	X29	Y29	Z29	X30	Y30	Z30	X31	Y31	Z31	X32	Y32	Z32	X33	Y33	Z33	X34	Y34	Z34	X35	Y35	Z35	X36	Y36	Z36	X37	Y37	Z37	X38	Y38	Z38	X39	Y39	Z39	X40	Y40	Z40	X41	Y41	Z41	X42	Y42	Z42	X43	Y43	Z43	X44	Y44	Z44	X45	Y45	Z45	X46	Y46	Z46	X47	Y47	Z47	X48	Y48	Z48	X49	Y49	Z49	X50	Y50	Z50	X51	Y51	Z51	X52	Y52	Z52	X53	Y53	Z53	X54	Y54	Z54	X55	Y55	Z55	X56	Y56	Z56	X57	Y57	Z57	X58	Y58	Z58	X59	Y59	Z59	X60	Y60	Z60	X61	Y61	Z61	
904	4.515000	-2533.968383	1463.846248	284.290123	-2669.777598	1515.603255	269.522246	-2684.418975	1513.159385	396.139556	-2810.828842	1426.713447	306.755044	-2972.942075	1127.681847	251.419436	-2706.733443	1296.714737	316.951512	-2710.422825	1405.925818	148.300769	-2701.510000	1244.218431	45.211370	-2679.102387	1204.811989	63.132178	-2697.177456	1186.561769	9.601664	-2721.693929	1108.949646	-28.678413	-2780.837411	1077.105808	50.504660	-2544.352056	1078.673888	160.973017	-2583.796973	1137.578574	186.401362	-2511.585048	1163.112604	227.042734	-2765.709349	1382.867385	492.648896	-2901.261733	1352.222065	594.626844	-2910.343663	1306.830631	609.561556	-2959.406441	1335.036221	631.055407	-3046.659116	1281.836618	667.852421	-3084.044314	1289.480943	595.102562	-2958.040901	1029.086093	610.433949	-3011.701796	999.531063	653.399485	-2912.607482	963.470061	639.051520	-2880.742233	923.420411	132.559632	-2880.872320	945.948234	374.901825	-3032.200146	1031.918370	254.878473	-3046.970053	1000.691956	230.467187	-3049.128412	1007.199677	286.240418	-3085.830696	679.896130	90.725160	-3091.132298	596.072714	101.213876	-3049.779579	575.581567	107.731442	-3138.242380	562.545821	122.181194	-3195.567218	487.209803	138.607575	-3196.183697	497.232282	267.154298	-3279.850127	335.387495	173.728522	-3351.945027	352.322363	125.842977	-3329.114053	322.098315	143.670154	-3390.097992	267.433936	171.875212	-3524.799776	233.035155	145.139703	-3513.812279	233.876900	233.728087	-3603.159075	269.614235	185.912352	-3503.581130	93.893104	240.401709	-3539.158081	92.949156	137.741364	-3500.329321	87.251455	192.409177	-2836.191417	847.094562	445.565852	-2774.854730	844.850490	426.684057	-2764.133058	866.882482	402.308672	-2725.374704	775.001355	431.860612	-2627.939959	621.196517	391.502439	-2631.381052	625.229027	270.920607	-2631.439404	410.650096	356.332088	-2715.680401	358.397514	406.025763	-2674.852293	342.656354	386.750378	-2682.769464	293.813056	358.726973	-2747.855004	241.848314	391.505420	-2743.345723	245.459621	306.554679	-2835.407913	183.203210	346.122160	-2609.586536	185.953895	334.185969	-2615.756489	190.692077	376.425355	-2655.625140	165.962872	431.195804	
905	4.520000	-2506.083429	1466.254004	286.443268	-2641.882643	1518.123441	271.740962	-2656.588285	1515.296161	398.283287	-2782.990004	1429.083215	308.348261	-2944.278597	1130.346900	249.896871	-2678.777739	1299.567996	318.625349	-2682.767865	1409.189519	149.957024	-2675.418802	1248.506417	44.554964	-2653.295568	1208.663335	61.729726	-2671.921882	1191.240497	8.258978	-2697.677595	1114.223688	-30.714326	-2757.188893	1082.047920	48.044559	-2520.906552	1078.160054	158.789836	-2559.374422	1137.249478	184.916532	-2487.078071	1161.045259	226.342464	-2738.324262	1384.125837	494.321078	-2873.471239	1351.408361	596.125600	-2882.777231	1305.836447	610.187092	-2931.921028	1333.857355	631.915454	-3019.166986	1280.264379	667.839965	-3055.859444	1288.047348	594.984526	-2929.037834	1027.453172	609.978267	-2982.956189	997.359317	652.297419	-2883.508537	962.084727	638.649535	-2850.606833	924.894519	133.486232	-2853.422095	948.459974	375.164201	-3003.338115	1034.740490	252.974252	-3017.711702	1003.328578	228.471213	-3020.623229	1010.047469	284.188664	-3054.436401	681.760204	91.255015	-3059.962071	598.138574	102.518994	-3018.971321	577.242601	110.483041	-3107.604663	564.785837	122.944619	-3165.953407	490.229611	139.799163	-3169.727243	503.171233	267.332567	-3255.608595	341.410225	176.026901	-3325.949540	359.454801	125.954326	-3304.487082	328.924548	144.801931	-3367.924476	277.177830	172.909733	-3503.048938	247.356882	143.854916	-3493.620541	248.392088	232.717812	-3580.351042	288.063476	182.706764	-3489.582458	107.121529	241.403195	-3523.147465	107.902225	138.156925	-3485.424059	99.582251	193.449297	-2808.028642	847.390530	445.821702	-2746.551244	843.831816	427.236675	-2735.185235	865.284195	402.695266	-2698.717957	772.983733	432.980280	-2603.886514	616.965886	393.823260	-2606.002150	620.290798	273.483992	-2596.331771	405.781500	358.965444	-2678.599729	348.831880	406.502542	-2636.613500	335.369292	388.194414	-2641.247276	286.200548	359.893492	-2703.043214	230.404393	391.254518	-2698.512525	235.092801	306.228892	-2787.650298	167.886313	345.021901	-2561.812615	182.233221	333.542112	-2568.293128	186.077414	375.834757	-2606.888774	158.353263	429.846377	
906	4.525000	-2477.994573	1468.601359	288.450094	-2613.813243	1520.471729	273.795911	-2628.589848	1517.252280	400.267117	-2754.994775	1431.321341	309.918978	-2915.747686	1133.231164	248.594363	-2650.669716	1302.254775	320.143617	-2655.090873	1412.207907	151.347606	-2649.865761	1252.531740	43.530641	-2628.039820	1212.283065	59.950764	-2647.412625	1195.591561	6.657364	-2674.554768	1119.218542	-32.769633	-2734.348549	1086.962016	45.696329	-2498.195173	1076.327253	156.038662	-2535.307862	1135.691651	183.007392	-2462.746920	1157.257949	225.121122	-2710.870117	1385.075043	495.930960	-2845.664171	1349.715108	597.590267	-2854.997596	1303.933716	610.736492	-2904.318124	1331.511308	632.748204	-2991.381009	1277.209090	667.839389	-3027.539855	1285.017682	594.875108	-2898.982403	1024.853661	609.178799	-2953.085317	994.032050	650.836428	-2853.230753	959.828273	637.742672	-2820.771068	926.327491	134.596638	-2826.189709	950.875680	375.735176	-2974.628042	1037.752239	251.370484	-2988.590275	1006.171055	226.723162	-2992.215639	1013.019061	282.388345	-3022.390981	682.702705	91.747220	-3027.734425	599.279252	103.659427	-2986.972057	578.285175	112.854674	-3075.684191	565.808357	123.488586	-3134.563822	491.901237	140.741171	-3141.030869	507.181921	267.225752	-3230.139071	346.835775	177.958217	-3298.758381	366.371139	126.008107	-3278.780638	335.459153	145.839617	-3344.709523	287.017969	173.986654	-3480.219782	262.481325	142.911231	-3471.962217	263.820228	232.023204	-3556.230398	306.987057	180.200468	-3473.756428	121.980104	242.420725	-3505.633511	124.023821	138.811111	-3468.949653	113.544789	194.542621	-2780.244854	847.027325	446.383603	-2718.646387	842.025457	428.145366	-2706.560521	862.891938	403.472824	-2672.690236	770.049849	434.394587	-2580.847610	611.498306	396.251438	-2581.610854	614.239033	276.029446	-2562.792970	400.377345	361.475885	-2642.834296	339.013996	407.101589	-2599.931860	327.798129	389.587227	-2601.529241	278.521247	360.970893	-2659.993348	219.185685	391.139756	-2655.675926	225.095188	306.086859	-2741.880718	153.476212	344.180293	-2516.551176	178.259572	332.687298	-2523.163606	181.090678	375.040779	-2560.383319	150.486418	428.341572	
907	4.530000	-2449.717706	1470.847225	290.307538	-2585.576079	1522.630876	275.682503	-2600.425231	1519.015178	402.087908	-2726.827779	1433.412146	311.455886	-2887.366560	1136.305864	247.540324	-2622.422141	1304.756201	321.508870	-2627.382075	1414.930227	152.474888	-2624.804141	1256.269570	42.184407	-2603.292916	1215.641320	57.853558	-2623.589232	1199.585494	4.832352	-2652.251163	1123.927903	-34.823232	-2712.265621	1091.840751	43.468738	-2476.220667	1073.224568	152.711196	-2511.607260	1132.929835	180.650901	-2438.626217	1151.791953	223.321797	-2683.357578	1385.720460	497.469561	-2817.862996	1347.186760	599.010082	-2827.000292	1301.170173	611.215161	-2876.592406	1328.023017	633.559543	-2963.270540	1272.707457	667.834349	-2999.065201	1280.476681	594.783158	-2867.895596	1021.337153	608.012407	-2922.079583	989.612930	649.024536	-2821.779227	956.747198	636.319388	-2791.192062	927.770941	135.887267	-2799.154735	953.230098	376.581904	-2946.071493	1040.888264	250.066809	-2959.611440	1009.162228	225.220115	-2963.911901	1016.044080	280.838096	-2989.791716	682.782063	92.222238	-2994.592721	599.533679	104.672866	-2953.909405	578.757635	114.843741	-3042.644818	565.699521	123.861743	-3101.620001	492.387937	141.481256	-3110.204906	509.297440	266.955478	-3203.427521	351.737086	179.400643	-3270.417691	373.198311	125.987737	-3251.993215	341.829181	146.706642	-3320.342220	296.945235	174.975860	-3456.160612	278.272089	142.256601	-3448.654700	279.924335	231.574716	-3530.577158	326.331906	178.406038	-3456.085088	138.145465	243.374008	-3486.720097	141.133315	139.604745	-3450.939819	128.866325	195.590684	-2752.926307	846.059513	447.221686	-2691.228621	839.503367	429.404330	-2678.372178	859.803168	404.648781	-2647.335912	766.328293	436.100780	-2558.681869	604.952142	398.755570	-2558.135836	607.277474	278.531768	-2530.871371	394.522610	363.719911	-2608.442122	329.073817	407.811081	-2564.877698	320.022954	390.841375	-2563.767752	270.829808	361.872973	-2619.004265	208.264138	391.140540	-2615.081506	215.490420	306.120775	-2698.439952	140.004333	343.549225	-2473.982477	173.991025	331.734641	-2480.584117	175.743191	374.142568	-2516.396680	142.439828	426.783857	
